<?xml version="1.0" encoding="utf-8"?>
<!-- Generator: Adobe Illustrator 25.0.1, SVG Export Plug-In . SVG Version: 6.00 Build 0)  -->
<svg version="1.1" id="Layer_1" xmlns="http://www.w3.org/2000/svg" xmlns:xlink="http://www.w3.org/1999/xlink" x="0px" y="0px"
	 viewBox="0 0 784 176" style="enable-background:new 0 0 784 176;" xml:space="preserve">
<style type="text/css">
	.st0{fill-rule:evenodd;clip-rule:evenodd;fill:url(#Combined-Shape_1_);}
	.st1{enable-background:new    ;}
	.st2{fill:#3C4957;}
</style>
<g id="Page-1">
	<g id="Group">
		
			<linearGradient id="Combined-Shape_1_" gradientUnits="userSpaceOnUse" x1="141.2719" y1="337.1803" x2="142.2617" y2="337.1803" gradientTransform="matrix(185 0 0 -122 -26128 41224)">
			<stop  offset="0" style="stop-color:#73FFDF"/>
			<stop  offset="1" style="stop-color:#0059D0"/>
		</linearGradient>
		<path id="Combined-Shape" class="st0" d="M54,29l62.3,85.3l-37.4,11.9L7.3,149L54,29z M131.5,27l60.8,104.6L150.4,143L62.3,27
			H131.5z"/>
		<g class="st1">
			<path class="st2" d="M262.6,134c-13,0-23.9-4.4-32.6-13.3c-8.7-8.8-13-19.7-13-32.7c0-12.9,4.4-23.7,13.1-32.6
				c8.7-8.9,19.8-13.3,33.3-13.3c7.7,0,14.2,1.2,19.4,3.7c5.2,2.5,10.2,6.1,15,10.7L286.1,70c-3.8-3.5-7.4-6-10.7-7.6
				c-3.3-1.6-7.4-2.3-12.1-2.3c-7.5,0-13.6,2.7-18.5,8.1c-4.9,5.4-7.3,12-7.3,19.9c0,7.8,2.4,14.4,7.3,19.8c4.9,5.4,11,8.1,18.5,8.1
				c4.7,0,8.8-0.8,12.3-2.5c3.5-1.7,7.2-4.3,11-7.9l12.4,13.3c-4.8,5.2-10.1,9-15.7,11.4C277.7,132.7,270.8,134,262.6,134z"/>
			<path class="st2" d="M305.3,132.4l38.1-89.5h18l38.1,89.5h-20.4l-8.1-19.9h-37.6l-8.1,19.9H305.3z M340.3,95.2H364l-11.8-28.8
				L340.3,95.2z"/>
			<path class="st2" d="M411.5,132.4V43.5h18l41.7,54.7V43.5h19.3v88.9h-16.6l-43.1-56.5v56.5H411.5z"/>
			<path class="st2" d="M587,120.6c-9,8.9-20.3,13.4-33.8,13.4c-13.5,0-24.8-4.4-33.7-13.3c-8.9-8.9-13.4-19.8-13.4-32.6
				c0-12.8,4.5-23.6,13.5-32.6c9-8.9,20.3-13.4,33.8-13.4c13.5,0,24.8,4.4,33.7,13.3c8.9,8.9,13.4,19.8,13.4,32.6
				C600.6,100.8,596.1,111.6,587,120.6z M534.1,107.8c5.1,5.4,11.5,8.1,19.3,8.1c7.8,0,14.2-2.7,19.2-8.1c5-5.4,7.5-12,7.5-19.9
				c0-7.8-2.5-14.4-7.6-19.8c-5.1-5.4-11.5-8.1-19.3-8.1c-7.8,0-14.2,2.7-19.2,8.1c-5,5.4-7.5,12-7.5,19.9
				C526.5,95.8,529.1,102.4,534.1,107.8z"/>
			<path class="st2" d="M616.2,132.4V43.5h36.3c10.5,0,18.8,2.8,24.9,8.5c6.1,5.7,9.1,13.2,9.1,22.5c0,9.9-3.4,17.6-10.2,23.1
				c-6.8,5.5-15.4,8.2-25.8,8.2h-14.9v26.7H616.2z M635.7,88.4h15.5c4.8,0,8.6-1.3,11.4-3.8c2.8-2.5,4.1-5.8,4.1-9.9
				c0-4.3-1.4-7.6-4.2-10c-2.8-2.3-6.7-3.5-11.7-3.5h-15.1V88.4z"/>
			<path class="st2" d="M723,132.4V97.4l-34.2-53.8h22.9l21.2,35.7l21.6-35.7h22.2L742.5,97v35.4H723z"/>
		</g>
	</g>
</g>
</svg>
